<svg xmlns="http://www.w3.org/2000/svg" version="1.1" xmlns:xlink="http://www.w3.org/1999/xlink" xmlns:svgjs="http://svgjs.dev/svgjs" width="1000" height="292" viewBox="0 0 1000 292"><g transform="matrix(1,0,0,1,-0.6060606060606233,0.49470848490821595)"><svg viewBox="0 0 396 116" data-background-color="#2f2f2f" preserveAspectRatio="xMidYMid meet" height="292" width="1000" xmlns="http://www.w3.org/2000/svg" xmlns:xlink="http://www.w3.org/1999/xlink"><g id="tight-bounds" transform="matrix(1,0,0,1,0.2400000000000091,-0.1965280282512083)"><svg viewBox="0 0 395.52 116.39305605650243" height="116.39305605650243" width="395.52"><g><svg viewBox="0 0 561.8645867717106 165.34470151770654" height="116.39305605650243" width="395.52"><g><rect width="6.816895224315682" height="165.34470151770654" x="141.68241609107116" y="0" fill="#ffffff" opacity="1" stroke-width="0" stroke="transparent" fill-opacity="1" class="rect-uu-0" data-fill-palette-color="primary" rx="1%" id="uu-0" data-palette-color="#ffffff"></rect></g><g transform="matrix(1,0,0,1,166.34458677171062,0.41130522765597277)"><svg viewBox="0 0 395.52 164.5220910623946" height="164.5220910623946" width="395.52"><g><svg viewBox="0 0 395.52 164.5220910623946" height="164.5220910623946" width="395.52"><g><svg viewBox="0 0 395.52 164.5220910623946" height="164.5220910623946" width="395.52"><g transform="matrix(1,0,0,1,0,0)"><svg width="395.52" viewBox="0.75 -33.25 180.15 70.75" height="164.5220910623946" data-palette-color="#ffffff"><svg></svg><svg></svg><g class="undefined-text-0" data-fill-palette-color="primary" id="text-0"><path d="M15.45 0.25h-1.75l-9.2-30.65-3.75-1.8v-0.8h12.7v0.8l-4.25 1.85 6.25 21.65h0.25l8.65-24.55h1.85l8.85 24.55h0.3l6.15-21.6-4.25-1.9v-0.8h11.05v0.8l-3.35 1.85-9.3 30.6h-1.75l-9.1-24.5h-0.25zM63.5 0h-10.95v-0.8l3.3-1.65v-23.1l-3.3-1.65v-0.8h10.95v0.8l-3.4 1.65v23.1l3.4 1.65zM80.6 0h-10.6v-0.8l3.55-1.65v-23.15l-3.55-1.6v-0.8h7l16.95 20.55v-18.15l-4.25-1.6v-0.8h10.5v0.8l-3.5 1.6v25.8h-1.95l-18.45-22.2v19.4l4.3 1.8zM129.05 0h-22.6v-0.8l3.55-1.65v-23.1l-3.55-1.65v-0.8h21.35v7.1h-0.8l-2.4-4.6h-10.35v9.75h7.55l1.5-3.4h0.8v9.25h-0.8l-1.5-3.35h-7.55v10.75h11.5l2.5-5.4h0.8z" fill="#ffffff" fill-rule="nonzero" stroke="none" stroke-width="1" stroke-linecap="butt" stroke-linejoin="miter" stroke-miterlimit="10" stroke-dasharray="" stroke-dashoffset="0" font-family="none" font-weight="none" font-size="none" text-anchor="none" style="mix-blend-mode: normal" data-fill-palette-color="primary" opacity="1"></path><path transform="translate(0,37)" d="M13.2 0.5v0c-2.067 0-3.817-0.193-5.25-0.58-1.433-0.38-2.917-0.953-4.45-1.72v0l-0.5-8.2h0.8l2.45 5.3c1.2 1 2.367 1.723 3.5 2.17 1.133 0.453 2.283 0.68 3.45 0.68v0c1.967 0 3.507-0.517 4.62-1.55 1.12-1.033 1.68-2.433 1.68-4.2v0c0-1.467-0.323-2.617-0.97-3.45-0.653-0.833-1.587-1.577-2.8-2.23-1.22-0.647-2.663-1.387-4.33-2.22v0c-1.567-0.8-2.9-1.583-4-2.35-1.1-0.767-1.933-1.66-2.5-2.68-0.567-1.013-0.85-2.287-0.85-3.82v0c0-1.133 0.277-2.243 0.83-3.33 0.547-1.08 1.297-2.063 2.25-2.95 0.947-0.88 2.013-1.58 3.2-2.1 1.18-0.513 2.403-0.77 3.67-0.77v0c1.533 0 2.95 0.183 4.25 0.55 1.3 0.367 2.633 0.883 4 1.55v0l0.5 8h-0.8l-2.3-5.25c-1.167-0.867-2.183-1.493-3.05-1.88-0.867-0.38-1.867-0.57-3-0.57v0c-1.467 0-2.673 0.5-3.62 1.5-0.953 1-1.43 2.233-1.43 3.7v0c0 1.7 0.517 3.023 1.55 3.97 1.033 0.953 2.65 1.963 4.85 3.03v0c2.033 1 3.7 1.923 5 2.77 1.3 0.853 2.267 1.83 2.9 2.93 0.633 1.1 0.95 2.5 0.95 4.2v0c0 1.567-0.333 2.94-1 4.12-0.667 1.187-1.523 2.18-2.57 2.98-1.053 0.8-2.203 1.4-3.45 1.8-1.253 0.4-2.447 0.6-3.58 0.6zM37.5 0h-9.3v-0.8l2.55-1.3 11.1-26.15h2.1l11.05 26.1 2.9 1.35v0.8h-10.9v-0.8l3.5-1.4-3.15-7.6h-10.4l-3.15 7.7 3.7 1.3zM42.1-22.4l-4.1 10.1h8.3zM74.45 0h-11.65v-0.8l3.55-1.65v-23.1l-3.55-1.65v-0.8h10.2c3.467 0 6.107 0.533 7.92 1.6 1.82 1.067 2.73 2.683 2.73 4.85v0c0 1.6-0.483 2.983-1.45 4.15-0.967 1.167-2.3 1.983-4 2.45v0c2.5 0.367 4.467 1.15 5.9 2.35 1.433 1.2 2.15 2.717 2.15 4.55v0c0 1.533-0.49 2.907-1.47 4.12-0.987 1.22-2.37 2.18-4.15 2.88-1.787 0.7-3.847 1.05-6.18 1.05zM72.35-25.5v0h-1.75v9.75h1.85c2 0 3.643-0.393 4.93-1.18 1.28-0.78 1.92-2.053 1.92-3.82v0c0-1.567-0.59-2.75-1.77-3.55-1.187-0.8-2.913-1.2-5.18-1.2zM74-13.25v0h-3.4v10.75h3.75c2.2 0 3.99-0.427 5.37-1.28 1.387-0.847 2.08-2.203 2.08-4.07v0c0-2.033-0.7-3.443-2.1-4.23-1.4-0.78-3.3-1.17-5.7-1.17zM103.2 0h-11.1v-0.8l3.6-1.65v-23.1l-3.6-1.65v-0.8h11.1c3.1 0 5.54 0.633 7.32 1.9 1.787 1.267 2.68 3 2.68 5.2v0c0 1.633-0.51 3.033-1.53 4.2-1.013 1.167-2.42 2.083-4.22 2.75v0l7.75 11.65 3.3 1.5v0.8h-7.1l-8.1-12.75h-3.4v10.25l3.3 1.7zM102.5-25.5v0h-2.6v10.25h2.85c1.8 0 3.24-0.46 4.32-1.38 1.087-0.913 1.63-2.17 1.63-3.77v0c0-1.7-0.543-2.977-1.63-3.83-1.08-0.847-2.603-1.27-4.57-1.27zM129.2 0h-9.3v-0.8l2.55-1.3 11.1-26.15h2.1l11.05 26.1 2.9 1.35v0.8h-10.9v-0.8l3.5-1.4-3.15-7.6h-10.4l-3.15 7.7 3.7 1.3zM133.8-22.4l-4.1 10.1h8.3zM165.6 0h-11.1v-0.8l3.6-1.65v-23.1l-3.6-1.65v-0.8h11.1c3.1 0 5.543 0.633 7.33 1.9 1.78 1.267 2.67 3 2.67 5.2v0c0 1.633-0.51 3.033-1.53 4.2-1.013 1.167-2.42 2.083-4.22 2.75v0l7.75 11.65 3.3 1.5v0.8h-7.1l-8.1-12.75h-3.4v10.25l3.3 1.7zM164.9-25.5v0h-2.6v10.25h2.85c1.8 0 3.24-0.46 4.32-1.38 1.087-0.913 1.63-2.17 1.63-3.77v0c0-1.7-0.543-2.977-1.63-3.83-1.08-0.847-2.603-1.27-4.57-1.27z" fill="#ffffff" fill-rule="nonzero" stroke="none" stroke-width="1" stroke-linecap="butt" stroke-linejoin="miter" stroke-miterlimit="10" stroke-dasharray="" stroke-dashoffset="0" font-family="none" font-weight="none" font-size="none" text-anchor="none" style="mix-blend-mode: normal" data-fill-palette-color="primary" opacity="1"></path></g></svg></g></svg></g></svg></g></svg></g><g transform="matrix(1,0,0,1,0,20.976566610455293)"><svg viewBox="0 0 123.83714063474739 123.39156829679595" height="123.39156829679595" width="123.83714063474739"><g><svg xmlns="http://www.w3.org/2000/svg" xmlns:xlink="http://www.w3.org/1999/xlink" version="1.1" x="0" y="0" viewBox="19.042999999999996 16.468 61.97800000000002 61.75499999999998" style="enable-background:new 0 0 100 100;" xml:space="preserve" height="123.39156829679595" width="123.83714063474739" class="icon-icon-0" data-fill-palette-color="accent" id="icon-0"><polyline class="" points="71.963,71.088 71.819,71.055 71.702,70.962 71.639,70.829 71.639,70.681 71.702,70.547 71.819,70.454   71.963,70.422 72.108,70.454 72.224,70.547 72.288,70.681 72.288,70.829 72.224,70.962 72.108,71.055 71.963,71.088 " fill-rule="evenodd" clip-rule="evenodd" fill="#5ab6ff" data-fill-palette-color="accent"></polyline><polyline class="" points="74.956,76.449 74.811,76.416 74.695,76.323 74.63,76.19 74.63,76.042 74.695,75.908 74.811,75.815   74.956,75.783 75.1,75.815 75.217,75.908 75.28,76.042 75.28,76.19 75.217,76.323 75.1,76.416 74.956,76.449 " fill-rule="evenodd" clip-rule="evenodd" fill="#5ab6ff" data-fill-palette-color="accent"></polyline><polyline class="" points="67.808,67.794 67.663,67.761 67.547,67.668 67.483,67.535 67.483,67.387 67.547,67.253 67.663,67.16   67.808,67.127 67.952,67.16 68.069,67.253 68.132,67.387 68.132,67.535 68.069,67.668 67.952,67.761 67.808,67.794 " fill-rule="evenodd" clip-rule="evenodd" fill="#5ab6ff" data-fill-palette-color="accent"></polyline><polyline class="" points="65.392,64.105 65.644,64.252 65.924,64.333 66.215,64.347 66.5,64.29 66.283,64.454 66.03,64.556   65.76,64.589 65.491,64.551 65.746,64.658 65.966,64.824 66.138,65.041 66.251,65.292 66.298,65.564 66.277,65.84 66.188,66.102   66.037,66.332 65.834,66.519 65.59,66.65 65.322,66.715 65.046,66.712 65.123,69.24 65.607,70.055 65.536,70.126 65.393,70.462   65.308,70.816 65.283,71.179 65.317,71.542 65.412,71.893 65.563,72.224 65.767,72.527 66.221,73.176 66.72,73.792 67.261,74.372   67.841,74.912 68.457,75.411 69.107,75.865 69.569,76.152 70.058,76.391 70.568,76.58 71.095,76.717 71.632,76.801 71.778,77.053   71.349,77.05 70.924,77.109 70.511,77.228 70.119,77.406 69.269,76.518 68.37,75.679 67.426,74.892 66.438,74.158 65.412,73.481   65.245,72.859 65.016,72.257 64.727,71.682 64.381,71.138 63.983,70.632 64.256,70.21 64.466,69.752 64.608,69.27 64.681,68.771   64.681,68.268 64.609,67.769 64.467,67.286 64.257,66.829 63.984,66.406 63.754,66.127 63.478,65.892 63.166,65.711 62.827,65.585   62.47,65.522 62.108,65.521 61.752,65.583 57.207,61.224 52.708,56.817 48.257,52.362 43.852,47.861 39.495,43.312 35.187,38.719   30.928,34.079 29.228,32.177 27.577,30.232 25.976,28.248 24.426,26.222 22.926,24.159 21.478,22.059 20.085,19.922 19.873,19.554   19.71,19.161 19.6,18.751 19.544,18.329 19.544,17.904 19.598,17.482 22.818,21.351 26.092,25.174 29.417,28.953 32.794,32.686   36.222,36.372 39.699,40.012 43.227,43.602 46.803,47.145 50.427,50.638 54.098,54.082 57.817,57.474 61.582,60.816 65.392,64.105   " fill-rule="evenodd" clip-rule="evenodd" fill="#5ab6ff" data-fill-palette-color="accent"></polyline><path class="" d="M74.956 76.616l0.171-0.031 0.151-0.086 0.111-0.133 0.06-0.164v-0.174l-0.06-0.163-0.111-0.134-0.151-0.086-0.171-0.03-0.171 0.03-0.15 0.086-0.112 0.134-0.06 0.163v0.174l0.06 0.164 0.112 0.133 0.15 0.086L74.956 76.616M71.963 71.254l0.171-0.03 0.151-0.086 0.111-0.134 0.06-0.163v-0.174l-0.06-0.164-0.111-0.133-0.151-0.086-0.171-0.03-0.171 0.03-0.15 0.086-0.112 0.133-0.06 0.164v0.174l0.06 0.163 0.112 0.134 0.15 0.086L71.963 71.254M67.807 67.961l0.171-0.03 0.151-0.087 0.112-0.133 0.059-0.164v-0.174l-0.059-0.163-0.112-0.133-0.151-0.087-0.171-0.03-0.171 0.03-0.15 0.087-0.112 0.133-0.059 0.163v0.174l0.059 0.164 0.112 0.133 0.15 0.087L67.807 67.961M68.924 66.74l3.674 2.684 3.561 5.365 0.215 1.395-0.798 1.341-0.447-0.175-0.468-0.102-0.479-0.025-0.477 0.052-0.463 0.126-0.271-0.125-0.247-0.165-0.217-0.205 0.323-0.056 0.304-0.125 0.267-0.19 0.22-0.244 0.161-0.285 0.094-0.315 0.024-0.327-0.084-0.415-0.145-0.399-0.203-0.373-0.256-0.338-0.305-0.296-0.728-0.537-0.695-0.579-0.659-0.621-0.62-0.659-0.58-0.695-0.538-0.728-0.246-0.273-0.292-0.222-0.327-0.165-0.352-0.103-0.365-0.036-0.365 0.03-0.355 0.097-0.33 0.16-0.236 0.236L65.949 69l-0.048-1.577 0.335-0.171 0.296-0.232 0.246-0.285 0.186-0.328 0.119-0.357 0.047-0.374L67.107 65.3l-0.097-0.365 0.209-0.221 0.171-0.252 0.127-0.276 0.081-0.294 0.032-0.303 0.263 0.264-0.102 0.401-0.034 0.412 0.037 0.412 0.105 0.4 0.172 0.376 0.233 0.342 0.286 0.298L68.924 66.74" fill-rule="evenodd" clip-rule="evenodd" fill="#5ab6ff" data-fill-palette-color="accent"></path><polyline class="" points="28.098,71.088 27.953,71.055 27.837,70.962 27.772,70.829 27.772,70.681 27.837,70.547 27.953,70.454   28.098,70.422 28.242,70.454 28.359,70.547 28.423,70.681 28.423,70.829 28.359,70.962 28.242,71.055 28.098,71.088 " fill-rule="evenodd" clip-rule="evenodd" fill="#5ab6ff" data-fill-palette-color="accent"></polyline><polyline class="" points="25.105,76.449 24.96,76.416 24.844,76.323 24.78,76.19 24.78,76.042 24.844,75.908 24.96,75.815   25.105,75.783 25.249,75.815 25.366,75.908 25.43,76.042 25.43,76.19 25.366,76.323 25.249,76.416 25.105,76.449 " fill-rule="evenodd" clip-rule="evenodd" fill="#5ab6ff" data-fill-palette-color="accent"></polyline><polyline class="" points="32.253,67.794 32.109,67.761 31.992,67.668 31.929,67.535 31.929,67.387 31.992,67.253 32.109,67.16   32.253,67.127 32.398,67.16 32.514,67.253 32.579,67.387 32.579,67.535 32.514,67.668 32.398,67.761 32.253,67.794 " fill-rule="evenodd" clip-rule="evenodd" fill="#5ab6ff" data-fill-palette-color="accent"></polyline><path class="" d="M25.105 76.616l0.171-0.031 0.151-0.086 0.111-0.133 0.06-0.164v-0.174l-0.06-0.163-0.111-0.134-0.151-0.086-0.171-0.03-0.171 0.03-0.151 0.086-0.111 0.134-0.06 0.163v0.174l0.06 0.164 0.111 0.133 0.151 0.086L25.105 76.616M28.098 71.254l0.171-0.03 0.15-0.086 0.112-0.134 0.06-0.163v-0.174l-0.06-0.164-0.112-0.133-0.15-0.086-0.171-0.03-0.171 0.03-0.151 0.086-0.111 0.133-0.06 0.164v0.174l0.06 0.163 0.111 0.134 0.151 0.086L28.098 71.254M32.253 67.961l0.171-0.03 0.15-0.087 0.112-0.133 0.059-0.164v-0.174l-0.059-0.163-0.112-0.133-0.15-0.087-0.171-0.03-0.171 0.03-0.151 0.087-0.112 0.133-0.059 0.163v0.174l0.059 0.164 0.112 0.133 0.151 0.087L32.253 67.961M31.137 66.74l0.333-0.245 0.286-0.298 0.233-0.342 0.172-0.376 0.105-0.4 0.037-0.412-0.034-0.412-0.102-0.401 0.263-0.264 0.032 0.303 0.081 0.294 0.127 0.276 0.171 0.252 0.209 0.221L32.953 65.3l-0.025 0.375 0.047 0.374 0.119 0.357 0.186 0.328 0.246 0.285 0.296 0.232 0.335 0.171L34.111 69l-0.265 0.447-0.236-0.236-0.33-0.16-0.355-0.097-0.365-0.03-0.365 0.036-0.353 0.103-0.327 0.165-0.292 0.222-0.246 0.273-0.537 0.728-0.58 0.695-0.621 0.659-0.659 0.621-0.695 0.579-0.728 0.537-0.304 0.296-0.257 0.338-0.203 0.373-0.145 0.399-0.085 0.415 0.024 0.327 0.094 0.315 0.161 0.285 0.22 0.244 0.268 0.19 0.303 0.125 0.323 0.056-0.217 0.205-0.247 0.165-0.27 0.125-0.464-0.126-0.476-0.052-0.479 0.025-0.469 0.102-0.447 0.175-0.798-1.341 0.215-1.395 3.561-5.365L31.137 66.74" fill-rule="evenodd" clip-rule="evenodd" fill="#5ab6ff" data-fill-palette-color="accent"></path><path class="" d="M30.676 75.449l0.626-0.437 0.593-0.48 0.558-0.521 0.52-0.559 0.48-0.594 0.436-0.626 0.18-0.265 0.126-0.294 0.069-0.313 0.01-0.32-0.051-0.316-0.109-0.302-0.166-0.165-0.646-0.646-0.28-0.12-0.299-0.06-0.305 0.001-0.298 0.063-0.28 0.122-0.249 0.176-0.208 0.223-0.553 0.748-0.595 0.713-0.637 0.677-0.675 0.637-0.714 0.596-0.747 0.553-0.243 0.239-0.205 0.272-0.163 0.3-0.118 0.32-0.069 0.334 0.025 0.245 0.085 0.23 0.14 0.203 0.185 0.161 0.219 0.111 0.241 0.052 0.245-0.008 0.236-0.069 0.404-0.032 0.593-0.108 0.575-0.178 0.549-0.247L30.676 75.449M66.171 72.232l0.436 0.626 0.48 0.594 0.52 0.559 0.558 0.521 0.594 0.48 0.625 0.437 0.515 0.313 0.549 0.247 0.575 0.178 0.593 0.108 0.405 0.032 0.235 0.069 0.246 0.008 0.24-0.052 0.22-0.111 0.185-0.161 0.14-0.203 0.085-0.23 0.026-0.245-0.07-0.334-0.118-0.32-0.163-0.3-0.205-0.272L72.6 73.939l-0.747-0.553L71.14 72.79l-0.676-0.637-0.637-0.677-0.595-0.713-0.552-0.748-0.209-0.223-0.249-0.176-0.279-0.122-0.299-0.063-0.305-0.001-0.299 0.06-0.281 0.12-0.646 0.646-0.166 0.165-0.109 0.302-0.051 0.316 0.01 0.32 0.069 0.313 0.127 0.294L66.171 72.232M65.56 67.18l0.059 1.915 0.527 0.891 0.51-0.511 0.314-0.138 0.335-0.072 0.343-0.002 0.335 0.068 0.315 0.135 0.28 0.197 0.235 0.25 0.546 0.741 0.59 0.706 0.631 0.671 0.67 0.631 0.706 0.591 0.74 0.547 0.265 0.257 0.223 0.294 0.177 0.324 0.128 0.345 0.075 0.361-0.023 0.272-0.085 0.259-0.145 0.232-0.195 0.191-0.235 0.14-0.261 0.08-0.273 0.017-0.268-0.047-0.25-0.11 0.173 0.365 0.237 0.326 0.295 0.277 0.341 0.217 0.375 0.151 0.405-0.129 0.42-0.064 0.425 0.004 0.419 0.072 0.403 0.137 0.375 0.199 1.025-1.723-0.245-1.585-3.635-5.476-3.738-2.731-0.291-0.214-0.251-0.26-0.202-0.299-0.149-0.328-0.09-0.35-0.03-0.359 0.032-0.36 0.093-0.348-1.085-1.085 0.115 0.299 0.049 0.316-0.017 0.32-0.084 0.309-0.146 0.285-0.202 0.248-0.25 0.201 0.131 0.303 0.065 0.323-0.001 0.33-0.069 0.322-0.133 0.302-0.192 0.268-0.243 0.224-0.284 0.169L65.56 67.18M50.392 49.915l3.532-3.422 3.485-3.468 3.438-3.515 3.392-3.561 3.343-3.605 3.295-3.65 3.245-3.695 3.196-3.736 3.145-3.78 0.055 0.422-0.001 0.425-0.055 0.421-0.111 0.411-0.162 0.393-0.213 0.368-1.394 2.136-1.447 2.101-1.499 2.063-1.551 2.025-1.602 1.985-1.651 1.944-1.699 1.903-4.122 4.491-4.168 4.449-4.213 4.406-4.258 4.363 0.243 0.228 4.259-4.364 4.214-4.407 4.169-4.45 4.123-4.492 1.705-1.908 1.656-1.951 1.606-1.991 1.555-2.032 1.505-2.07 1.452-2.106 1.398-2.143 0.245-0.431 0.184-0.46 0.118-0.481 0.052-0.492-0.016-0.495-0.085-0.488-0.15-0.472-3.183 3.836-3.234 3.793-3.285 3.748-3.335 3.704-3.385 3.658-3.435 3.611-3.484 3.565-3.532 3.517-3.579 3.469L50.392 49.915M30.005 77.835l0.735-0.791 0.772-0.753 0.809-0.715 0.844-0.673 0.876-0.63 0.906-0.585 0.135-0.563 0.19-0.547 0.24-0.526 0.29-0.501 0.337-0.471 0.38-0.436-0.296-0.385-0.235-0.426-0.166-0.457-0.095-0.477-0.021-0.486 0.054-0.484 0.126-0.469 0.197-0.445 0.262-0.41 0.001 0.001 0.211-0.255 0.255-0.21 0.291-0.156 0.315-0.099 0.329-0.037 0.329 0.026 0.318 0.088 3.874-3.706 3.839-3.741 3.806-3.775-0.235-0.235L45.92 58.23l-3.789 3.694-3.823 3.66-0.356-0.063H37.59l-0.355 0.064-0.34 0.125-0.312 0.183-0.275 0.234-0.231 0.279-0.273 0.423-0.21 0.458-0.143 0.483-0.072 0.498 0.001 0.504 0.072 0.498 0.143 0.483 0.21 0.457 0.274 0.423-0.399 0.506-0.345 0.543-0.288 0.576-0.23 0.601-0.167 0.622-1.026 0.677-0.986 0.734-0.945 0.788-0.899 0.838-0.851 0.888-0.391-0.177-0.413-0.12-0.425-0.058-0.43 0.003 0.146-0.253 0.537-0.084 0.527-0.137 0.51-0.189 0.488-0.239 0.463-0.286 0.65-0.455 0.616-0.498 0.58-0.54 0.541-0.58 0.498-0.616 0.455-0.649 0.204-0.302 0.152-0.332 0.094-0.352 0.035-0.363-0.025-0.363-0.085-0.355-0.142-0.335-0.071-0.07 0.483-0.815 0.078-2.528-0.276 0.003-0.268-0.065-0.244-0.13-0.204-0.187-0.151-0.231-0.089-0.262-0.022-0.275 0.047-0.272 0.114-0.252 0.172-0.216 0.221-0.166 0.255-0.106-0.27 0.038-0.27-0.034-0.253-0.102L33.56 64.29l0.286 0.056 0.291-0.013 0.279-0.083 0.252-0.146 3.304-2.846 3.269-2.885 3.235-2.925 3.2-2.962-0.235-0.237-3.195 2.957-3.229 2.919-3.264 2.88-3.297 2.843v-0.001l-0.211 0.114-0.234 0.053-0.239-0.013-0.227-0.076-0.197-0.135-0.155-0.184-0.099-0.217-0.036-0.236 0.028-0.238-0.008 0.015-0.108 0.29-0.04 0.305 0.03 0.308 0.099 0.293 0.162 0.263 0.217 0.219 0.262 0.165-0.161 0.286-0.092 0.316-0.017 0.328 0.057 0.324 0.129 0.302 0.195 0.265 0.249 0.214 0.292 0.152 0.319 0.082-0.065 2.101-0.572 0.965 0.216 0.216 0.126 0.33 0.061 0.348-0.005 0.354-0.073 0.346-0.136 0.326-0.195 0.295-0.001-0.001-0.443 0.635L33.1 73.561l-0.527 0.566-0.566 0.528-0.602 0.487-0.634 0.444H30.77l-0.435 0.271-0.461 0.225-0.481 0.178-0.496 0.129-0.506 0.079-0.138 0.31-0.182 0.285-0.221 0.257-0.255 0.223 0.404-0.115 0.417-0.05 0.42 0.016 0.412 0.084 0.393 0.147L30.005 77.835M23.339 76.25l1.025 1.723 0.375-0.199 0.402-0.137 0.419-0.072 0.425-0.004 0.421 0.064 0.405 0.129 0.375-0.151 0.34-0.217 0.295-0.277 0.238-0.326 0.173-0.365-0.25 0.11-0.269 0.047-0.273-0.017-0.261-0.08-0.235-0.14-0.195-0.191-0.145-0.232-0.085-0.259-0.023-0.272h0.001l0.075-0.361 0.127-0.345 0.177-0.324 0.224-0.294 0.264-0.257 0.741-0.547 0.705-0.591 0.67-0.631 0.631-0.671 0.59-0.706 0.546-0.741 0.235-0.25 0.28-0.197 0.315-0.135 0.336-0.068 0.342 0.002 0.335 0.072 0.313 0.138 0.51 0.511 0.528-0.891 0.059-1.915-0.312-0.107-0.284-0.169-0.242-0.224-0.192-0.268-0.134-0.302-0.068-0.322-0.002-0.33 0.066-0.323 0.13-0.303-0.25-0.201-0.202-0.248-0.146-0.285-0.084-0.309-0.017-0.32 0.05-0.316 0.115-0.299-1.085 1.085 0.093 0.348 0.032 0.36-0.029 0.359-0.091 0.35-0.148 0.328-0.203 0.299-0.25 0.26-0.291 0.214h-0.001l-3.738 2.731-3.635 5.476L23.339 76.25M19.805 20.103L19.805 20.103l1.398 2.143 1.451 2.106 1.505 2.07 1.555 2.032 1.607 1.991 1.655 1.951 1.705 1.908 4.281 4.663 4.33 4.616 4.379 4.571 4.427 4.524 4.475 4.475 4.523 4.429 4.57 4.379 0.318-0.088 0.329-0.026 0.329 0.037 0.315 0.099 0.29 0.156 0.255 0.21 0.212 0.255v-0.001l0.262 0.41 0.197 0.445 0.126 0.469 0.054 0.484-0.021 0.486-0.095 0.477-0.167 0.457-0.234 0.426-0.297 0.385 0.38 0.436 0.337 0.471 0.29 0.501 0.241 0.526 0.189 0.547 0.136 0.563 0.905 0.585 0.876 0.63 0.844 0.673 0.809 0.715 0.773 0.753 0.734 0.791 0.365-0.208 0.393-0.147 0.412-0.084 0.42-0.016 0.417 0.05 0.404 0.115-0.255-0.223-0.221-0.257-0.182-0.285-0.137-0.31-0.507-0.079-0.496-0.129-0.481-0.178-0.461-0.225-0.435-0.271-0.635-0.444-0.602-0.487-0.565-0.528-0.528-0.566-0.485-0.603-0.443-0.635-0.001 0.001-0.195-0.295-0.136-0.326-0.072-0.346-0.006-0.354 0.062-0.348 0.125-0.33 0.216-0.216-0.571-0.965-0.065-2.101 0.318-0.082 0.292-0.152 0.25-0.214 0.195-0.265 0.129-0.302 0.057-0.324-0.017-0.328-0.092-0.316-0.16-0.286 0.261-0.165 0.217-0.219 0.162-0.263 0.099-0.293 0.03-0.308-0.04-0.305-0.108-0.29-0.008-0.015 0.028 0.238-0.036 0.236-0.099 0.217-0.155 0.184-0.197 0.135-0.227 0.076-0.239 0.013-0.234-0.053-0.21-0.114-0.001 0.001-3.843-3.318-3.796-3.372-3.749-3.423-3.702-3.475-3.654-3.525-3.604-3.575-3.555-3.625-3.505-3.674-3.453-3.723-3.402-3.769-3.348-3.816-3.295-3.862-3.243-3.907-0.15 0.472-0.085 0.488-0.016 0.495 0.052 0.492 0.118 0.481 0.184 0.46L19.805 20.103M19.414 16.468l3.198 3.861 3.25 3.816 3.303 3.772 3.353 3.726 3.405 3.68 3.454 3.633 3.503 3.586 3.552 3.537 3.6 3.489 3.6-3.489 3.552-3.537 3.503-3.586 3.455-3.633 3.404-3.68 3.354-3.726 3.302-3.772 3.251-3.816 3.197-3.861 0.185 0.452 0.124 0.473 0.062 0.484-0.001 0.488-0.065 0.485-0.126 0.471-0.186 0.451-0.244 0.424-1.4 2.146-1.454 2.11-1.506 2.073-1.558 2.034-1.609 1.995-1.658 1.953-1.707 1.911-4.123 4.494-4.169 4.45-4.215 4.407-4.259 4.364 3.192 2.955 3.227 2.917 3.261 2.878 3.295 2.84 0.196 0.096 0.215 0.034 0.215-0.034 0.195-0.097 0.157-0.153 0.104-0.192 0.041-0.215-0.026-0.216-0.217-0.778-0.089-0.174 1.906 1.906-0.105 0.33-0.045 0.345 0.016 0.346 0.078 0.338 0.136 0.319 0.192 0.29 0.239 0.251 0.281 0.205 3.763 2.749 3.671 5.532 0.26 1.681-1.155 1.937-0.313-0.21-0.342-0.158-0.363-0.103-0.375-0.045-0.376 0.015-0.37 0.074-0.353 0.132-0.225 0.119-0.337-0.213-0.367-0.156-0.387-0.095-0.398-0.032-0.397 0.034-0.387 0.097-0.366 0.158-0.335 0.215-0.752-0.82-0.794-0.781-0.833-0.738-0.869-0.695-0.905-0.648-0.936-0.601-0.137-0.583-0.195-0.565-0.252-0.543-0.306-0.514-0.356-0.481-0.404-0.441 0.307-0.361 0.247-0.405 0.18-0.437 0.11-0.461 0.036-0.473-0.039-0.472-0.112-0.46-0.183-0.437-0.249-0.404-0.309-0.358-0.243-0.17-0.271-0.12-0.289-0.067-0.296-0.012-0.293 0.044-0.28 0.099-3.899-3.73-3.866-3.765-3.831-3.801-3.831 3.801-3.865 3.765-3.9 3.73-0.279-0.099-0.294-0.044-0.296 0.012-0.288 0.067-0.271 0.12-0.244 0.17-0.309 0.358-0.249 0.404-0.183 0.437-0.112 0.46-0.038 0.472 0.035 0.473 0.11 0.461 0.18 0.437 0.247 0.405 0.307 0.361-0.404 0.441-0.356 0.481-0.306 0.514-0.252 0.543-0.195 0.565L35.1 73.772l-0.936 0.601-0.905 0.648-0.869 0.695-0.833 0.738-0.793 0.781-0.753 0.82-0.335-0.215-0.366-0.158-0.387-0.097-0.397-0.034-0.397 0.032-0.388 0.095-0.367 0.156-0.336 0.213-0.226-0.119-0.353-0.132-0.37-0.074-0.376-0.015-0.375 0.045-0.363 0.103-0.342 0.158-0.313 0.21-1.155-1.937 0.26-1.681 3.671-5.532 3.764-2.749 0.28-0.205 0.24-0.251 0.191-0.29 0.136-0.319 0.078-0.338 0.016-0.346-0.045-0.345-0.105-0.33 1.906-1.906-0.088 0.174-0.218 0.778-0.026 0.216 0.041 0.215 0.104 0.192 0.157 0.153 0.195 0.097 0.215 0.034 0.216-0.034 0.195-0.096 3.295-2.84 3.261-2.878 3.227-2.917 3.192-2.955-4.259-4.364-4.215-4.407-4.168-4.45-4.124-4.494-1.707-1.911-1.658-1.953-1.609-1.995-1.558-2.034-1.506-2.073-1.454-2.11-1.4-2.146-0.244-0.424-0.185-0.451-0.127-0.471-0.064-0.485-0.002-0.488 0.062-0.484 0.125-0.473L19.414 16.468" fill-rule="evenodd" clip-rule="evenodd" fill="#5ab6ff" data-fill-palette-color="accent"></path></svg></g></svg></g></svg></g><defs></defs></svg><rect width="395.52" height="116.39305605650243" fill="none" stroke="none" visibility="hidden"></rect></g></svg></g></svg>